<svg width="32" height="32" viewBox="0 0 32 32" fill="none" xmlns="http://www.w3.org/2000/svg">
  <!-- Carrefour-inspired logo with C shape -->
  <rect width="32" height="32" rx="6" fill="#004B87"/>
  <path d="M8 10C8 8.89543 8.89543 8 10 8H22C23.1046 8 24 8.89543 24 10V22C24 23.1046 23.1046 24 22 24H10C8.89543 24 8 23.1046 8 22V10Z" fill="#E30613"/>
  <path d="M12 12C12 11.4477 12.4477 11 13 11H19C19.5523 11 20 11.4477 20 12V20C20 20.5523 19.5523 21 19 21H13C12.4477 21 12 20.5523 12 20V12Z" fill="white"/>
  <path d="M14 14C14 13.4477 14.4477 13 15 13H17C17.5523 13 18 13.4477 18 14V18C18 18.5523 17.5523 19 17 19H15C14.4477 19 14 18.5523 14 18V14Z" fill="#004B87"/>
</svg>
